opsz144_wdth50.ufo
<glyph name="A" format="2">
	<unicode hex="0041"/>
	<advance width="1474"/>
	<outline>
		<contour>
			<point x="-51.9661865234" y="0" type="line"/>
			<point x="-51.9661865234" y="100.9987792969" type="line"/>
			<point x="157.1903076172" y="135.9987792969" type="line"/>
			<point x="341.1922607422" y="648.7863769531" type="line"/>
			<point x="672.1485595703" y="1506" type="line"/>
			<point x="798.0817871094" y="1506" type="line"/>
			<point x="1136.7980957031" y="676.7115478516" type="line"/>
			<point x="1321.5759277344" y="134.9987792969" type="line"/>
			<point x="1486.3092041016" y="100.9987792969" type="line"/>
			<point x="1486.3092041016" y="0" type="line"/>
			<point x="965.2299194336" y="0" type="line"/>
			<point x="965.2299194336" y="100.9987792969" type="line"/>
			<point x="1139.4055175781" y="134.9987792969" type="line"/>
			<point x="985.53125" y="616.9766845703" type="line"/>
			<point x="776.4801025391" y="1072.1805419922" type="line"/>
			<point x="722.7863769531" y="1253.2944335938" type="line"/>
			<point x="722.7863769531" y="1253.2944335938" type="line"/>
			<point x="674.6589355469" y="1070.6644287109" type="line"/>
			<point x="448.4993896484" y="607.4838867188" type="line"/>
			<point x="314.5411376953" y="135.9987792969" type="line"/>
			<point x="516.8320922852" y="100.9987792969" type="line"/>
			<point x="516.8320922852" y="0" type="line"/>
		</contour>
		<contour>
			<point x="645.5626968876" y="615.3872070312" type="line"/>
			<point x="1034.8954093687" y="604.8225097656" type="line"/>
			<point x="1082.1190185547" y="483.9201660156" type="line"/>
			<point x="645.5626968876" y="519.8403320312" type="line"/>
		</contour>
		<contour>
			<point x="338.0264892578" y="483.9201660156" type="line"/>
			<point x="388.3236083984" y="603.064453125" type="line"/>
			<point x="645.5626968876" y="615.3872070312" type="line"/>
			<point x="645.5626968876" y="519.8403320312" type="line"/>
		</contour>
	</outline>
	<anchor name="bottom" x="735" y="0"/>
	<anchor name="ogonek" x="1318" y="0"/>
	<anchor name="tonos" x="492" y="1500"/>
	<anchor name="top" x="753" y="1500"/>
</glyph>
<glyph name="D" format="2">
	<unicode hex="0044"/>
	<advance width="1612"/>
	<outline>
		<contour>
			<point x="82.9930419922" y="0" type="line"/>
			<point x="82.9930419922" y="99.9987792969" type="line"/>
			<point x="289.9959716797" y="138.9987792969" type="line"/>
			<point x="292.2750244141" y="759" type="line"/>
			<point x="289.9959716797" y="1348.8013916016" type="line"/>
			<point x="82.9930419922" y="1385.8013916016" type="line"/>
			<point x="82.9930419922" y="1500" type="line"/>
			<point x="774.0261427356" y="1500" type="line" smooth="yes"/>
			<point x="1108.4827290196" y="1500"/>
			<point x="1529.2427880071" y="1152.0806451613"/>
			<point x="1529.2427880071" y="777" type="qcurve" smooth="yes"/>
			<point x="1529.2427880071" y="409.3870967742"/>
			<point x="1081.4558853641" y="0"/>
			<point x="752.1303592805" y="0" type="qcurve" smooth="yes"/>
		</contour>
		<contour>
			<point x="469.4162912676" y="118.8701171875" type="line"/>
			<point x="499.6891006962" y="115.6281738281"/>
			<point x="660.8638719128" y="108.8701171875"/>
			<point x="752.3554431546" y="108.8701171875" type="qcurve" smooth="yes"/>
			<point x="1056.6490852602" y="108.8701171875"/>
			<point x="1334.5281568958" y="495.703235257"/>
			<point x="1338.5699364446" y="761" type="qcurve" smooth="yes"/>
			<point x="1339.5420748803" y="1016.9193784652"/>
			<point x="1034.5627992691" y="1386.5493164062"/>
			<point x="724.6222750757" y="1386.5493164062" type="qcurve" smooth="yes"/>
			<point x="648.51816485" y="1386.5493164062"/>
			<point x="502.0332484091" y="1373.7912597656"/>
			<point x="469.4162912676" y="1366.5493164062" type="qcurve"/>
			<point x="466.8549804688" y="759" type="line"/>
		</contour>
	</outline>
	<anchor name="bottom" x="686" y="0"/>
	<anchor name="center" x="438" y="754"/>
	<anchor name="top" x="686" y="1500"/>
	<anchor name="liga" x="1590" y="0"/>
</glyph>
<glyph name="E" format="2">
	<unicode hex="0045"/>
	<advance width="1265"/>
	<outline>
		<contour>
			<point x="82.9930419922" y="0" type="line"/>
			<point x="82.9930419922" y="100.9987792969" type="line"/>
			<point x="289.9959716797" y="133.9987792969" type="line"/>
			<point x="292.2750244141" y="755" type="line"/>
			<point x="289.9959716797" y="1354.8013916016" type="line"/>
			<point x="82.9930419922" y="1388.8013916016" type="line"/>
			<point x="82.9930419922" y="1500" type="line"/>
			<point x="1147.9510635868" y="1500" type="line"/>
			<point x="1147.9510635868" y="1159.3267822266" type="line"/>
			<point x="1045.2462768555" y="1159.3267822266" type="line"/>
			<point x="946.2462768555" y="1385.8557128906" type="line"/>
			<point x="505.1340332031" y="1385.8557128906" type="line"/>
			<point x="470.1340332031" y="1367.8557128906" type="line"/>
			<point x="467.8549804688" y="784" type="line"/>
			<point x="470.1340332031" y="131.5637207031" type="line"/>
			<point x="511.1340332031" y="104.5637207031" type="line"/>
			<point x="1012.295715332" y="104.5637207031" type="line"/>
			<point x="1128.9973282352" y="386.0076904297" type="line"/>
			<point x="1234.0005020634" y="386.0076904297" type="line"/>
			<point x="1207.0005020634" y="0" type="line"/>
		</contour>
		<contour>
			<point x="407.134765625" y="739.9196777344" type="line"/>
			<point x="407.134765625" y="834.3544921875" type="line"/>
			<point x="830.2063126102" y="848.9350585938" type="line"/>
			<point x="890.2063126102" y="1008.337890625" type="line"/>
			<point x="995.2094864384" y="1008.337890625" type="line"/>
			<point x="995.2094864384" y="563.662109375" type="line"/>
			<point x="890.2063126102" y="563.662109375" type="line"/>
			<point x="830.2063126102" y="725.3391113281" type="line"/>
		</contour>
	</outline>
	<anchor name="bottom" x="681" y="0"/>
	<anchor name="ogonek" x="1000" y="0"/>
	<anchor name="top" x="654" y="1500"/>
	<anchor name="tonos" x="0" y="1500"/>
</glyph>
<glyph name="F" format="2">
	<unicode hex="0046"/>
	<advance width="1122"/>
	<outline>
		<contour>
			<point x="82.9930419922" y="0" type="line"/>
			<point x="82.9930419922" y="100.9987792969" type="line"/>
			<point x="289.9959716797" y="135.9987792969" type="line"/>
			<point x="291.9959716797" y="761" type="line"/>
			<point x="289.9959716797" y="1351.8013916016" type="line"/>
			<point x="82.9930419922" y="1385.8013916016" type="line"/>
			<point x="82.9930419922" y="1500" type="line"/>
			<point x="1066.3205566406" y="1500" type="line"/>
			<point x="1066.3205566406" y="1147.9931640625" type="line"/>
			<point x="960.3173828125" y="1147.9931640625" type="line"/>
			<point x="884.3173828125" y="1385.8557128906" type="line"/>
			<point x="485.1340332031" y="1385.8557128906" type="line"/>
			<point x="467.1340332031" y="1362.8557128906" type="line"/>
			<point x="468.8549804688" y="767" type="line"/>
			<point x="471.1340332031" y="134.9987792969" type="line"/>
			<point x="687.9833984375" y="100.9987792969" type="line"/>
			<point x="687.9833984375" y="0" type="line"/>
		</contour>
		<contour>
			<point x="400.9952392578" y="731.61328125" type="line"/>
			<point x="400.9952392578" y="832.6286621094" type="line"/>
			<point x="740.6323852539" y="842.9350585938" type="line"/>
			<point x="799.6323852539" y="996.6715087891" type="line"/>
			<point x="910.635559082" y="996.6715087891" type="line"/>
			<point x="910.635559082" y="526.9948730469" type="line"/>
			<point x="802.6323852539" y="526.9948730469" type="line"/>
			<point x="740.6323852539" y="721.3068847656" type="line"/>
		</contour>
	</outline>
	<anchor name="bottom" x="578" y="0"/>
	<anchor name="top" x="622" y="1500"/>
</glyph>
<glyph name="H" format="2">
	<unicode hex="0048"/>
	<advance width="1743"/>
	<outline>
		<contour>
			<point x="82.9930419922" y="0" type="line"/>
			<point x="82.9930419922" y="100.9987792969" type="line"/>
			<point x="289.9959716797" y="135.9987792969" type="line"/>
			<point x="292.2750244141" y="775" type="line"/>
			<point x="289.9959716797" y="1351.8013916016" type="line"/>
			<point x="82.9930419922" y="1385.8013916016" type="line"/>
			<point x="82.9930419922" y="1500" type="line"/>
			<point x="668.1369628906" y="1500" type="line"/>
			<point x="668.1369628906" y="1385.8013916016" type="line"/>
			<point x="471.1340332031" y="1351.8013916016" type="line"/>
			<point x="468.8549804688" y="775" type="line"/>
			<point x="471.1340332031" y="135.9987792969" type="line"/>
			<point x="668.1369628906" y="100.9987792969" type="line"/>
			<point x="668.1369628906" y="0" type="line"/>
		</contour>
		<contour>
			<point x="384.9952392578" y="710.2424316406" type="line"/>
			<point x="384.9952392578" y="842.9995117188" type="line"/>
			<point x="869.8477172852" y="833.9350585938" type="line"/>
			<point x="1361.1160790228" y="842.9995117188" type="line"/>
			<point x="1361.438659668" y="710.2424316406" type="line"/>
			<point x="869.8477172852" y="710.2424316406" type="line"/>
		</contour>
		<contour>
			<point x="1074.1138817571" y="0" type="line"/>
			<point x="1074.1138817571" y="100.9987792969" type="line"/>
			<point x="1271.1168114446" y="135.9987792969" type="line"/>
			<point x="1273.395864179" y="775" type="line"/>
			<point x="1271.1168114446" y="1351.8013916016" type="line"/>
			<point x="1074.1138817571" y="1385.8013916016" type="line"/>
			<point x="1074.1138817571" y="1500" type="line"/>
			<point x="1659.2578026556" y="1500" type="line"/>
			<point x="1659.2578026556" y="1385.8013916016" type="line"/>
			<point x="1452.2548729681" y="1351.8013916016" type="line"/>
			<point x="1449.9758202337" y="775" type="line"/>
			<point x="1452.2548729681" y="135.9987792969" type="line"/>
			<point x="1659.2578026556" y="100.9987792969" type="line"/>
			<point x="1659.2578026556" y="0" type="line"/>
		</contour>
	</outline>
	<anchor name="bottom" x="870" y="0"/>
	<anchor name="center" x="870" y="1079"/>
	<anchor name="top" x="870" y="1500"/>
	<anchor name="tonos" x="0" y="1500"/>
	<anchor name="cy_descender" x="1658" y="100"/>
</glyph>
<glyph name="J" format="2">
	<unicode hex="004A"/>
	<advance width="768"/>
	<outline>
		<contour>
			<point x="60.0252075195" y="-228.2638549805" type="qcurve"/>
			<point x="67.0252075195" y="-94.2653808594" type="line"/>
			<point x="86.2692260742" y="-90.8654785156"/>
			<point x="109.8059082031" y="-80.465637207"/>
			<point x="146.7086181641" y="-78.0656738281" type="qcurve" smooth="yes"/>
			<point x="220.8067016602" y="-73.2657470703"/>
			<point x="318.0754394531" y="-71.0643920898"/>
			<point x="318.0754394531" y="45.9356079102" type="qcurve" smooth="yes"/>
			<point x="316.0754394531" y="754" type="line"/>
			<point x="315.0754394531" y="1351.8013916016" type="line"/>
			<point x="80.2841186523" y="1385.8013916016" type="line"/>
			<point x="80.2841186523" y="1500" type="line"/>
			<point x="697.9755859375" y="1500" type="line"/>
			<point x="670" y="1384" type="line"/>
			<point x="480" y="1350" type="line"/>
			<point x="491.6553955078" y="754" type="line"/>
			<point x="492.3297119141" y="129.9356079102" type="line" smooth="yes"/>
			<point x="491.0224609375" y="-44.0643920898"/>
			<point x="344.5731811523" y="-222.2641601562"/>
			<point x="201.1943969727" y="-222.2641601562" type="qcurve" smooth="yes"/>
			<point x="147.7899169922" y="-222.2641601562"/>
			<point x="93.6781005859" y="-226.2639770508"/>
		</contour>
	</outline>
	<anchor name="bottom" x="376" y="-208"/>
	<anchor name="top" x="376" y="1500"/>
	<anchor name="_liga" x="0" y="0"/>
</glyph>
<glyph name="K" format="2">
	<unicode hex="004B"/>
	<advance width="1327"/>
	<outline>
		<contour>
			<point x="82.9930419922" y="0" type="line"/>
			<point x="82.9930419922" y="100.9987792969" type="line"/>
			<point x="289.9959716797" y="135.9987792969" type="line"/>
			<point x="291.9959716797" y="754" type="line"/>
			<point x="289.9959716797" y="1351.8013916016" type="line"/>
			<point x="82.9930419922" y="1385.8013916016" type="line"/>
			<point x="82.9930419922" y="1500" type="line"/>
			<point x="673.7137451172" y="1500" type="line"/>
			<point x="673.7137451172" y="1385.8013916016" type="line"/>
			<point x="470.1340332031" y="1351.8013916016" type="line"/>
			<point x="464.8549804688" y="754" type="line"/>
			<point x="470.1340332031" y="135.9987792969" type="line"/>
			<point x="668.1369628906" y="100.9987792969" type="line"/>
			<point x="668.1369628906" y="0" type="line"/>
		</contour>
		<contour>
			<point x="354.4017333984" y="473.1591796875" type="line"/>
			<point x="354.4017333984" y="585.4350585938" type="line"/>
			<point x="1047.7429199219" y="1355.8013916016" type="line"/>
			<point x="843.7216186523" y="1385.8013916016" type="line"/>
			<point x="843.7216186523" y="1500" type="line"/>
			<point x="1407.3621826172" y="1500" type="line"/>
			<point x="1407.3621826172" y="1385.8013916016" type="line"/>
			<point x="1191.62890625" y="1355.8013916016" type="line"/>
			<point x="731.287109375" y="871.4440917969" type="line"/>
			<point x="704.7094726562" y="841.2043457031" type="line"/>
		</contour>
		<contour>
			<point x="599.24609375" y="814.0219726562" type="line"/>
			<point x="707.0555419922" y="920.7233886719" type="line"/>
			<point x="1259.2001953125" y="134.9987792969" type="line"/>
			<point x="1423.0963272587" y="100.9987792969" type="line"/>
			<point x="1423.0963272587" y="0" type="line"/>
			<point x="905.3873133505" y="0" type="line"/>
			<point x="905.3873133505" y="100.9987792969" type="line"/>
			<point x="1070.7135009766" y="134.9987792969" type="line"/>
		</contour>
	</outline>
	<anchor name="bottom" x="812" y="0"/>
	<anchor name="top" x="770" y="1500"/>
</glyph>
<glyph name="L" format="2">
	<unicode hex="004C"/>
	<advance width="1295"/>
	<outline>
		<contour>
			<point x="82.9930419922" y="0" type="line"/>
			<point x="82.9930419922" y="100.9987792969" type="line"/>
			<point x="289.9959716797" y="135.9987792969" type="line"/>
			<point x="291.9959716797" y="754" type="line"/>
			<point x="289.9959716797" y="1351.8013916016" type="line"/>
			<point x="82.9930419922" y="1385.8013916016" type="line"/>
			<point x="82.9930419922" y="1500" type="line"/>
			<point x="693.3103637695" y="1500" type="line"/>
			<point x="693.3103637695" y="1385.8013916016" type="line"/>
			<point x="471.1340332031" y="1351.8013916016" type="line"/>
			<point x="468.8549804688" y="754" type="line"/>
			<point x="471.1340332031" y="125.5637207031" type="line"/>
			<point x="524.1340332031" y="104.5637207031" type="line"/>
			<point x="1006.4572163243" y="104.5637207031" type="line"/>
			<point x="1151.4572163243" y="480.9058837891" type="line"/>
			<point x="1273.4061909337" y="480.9058837891" type="line"/>
			<point x="1233.3095112462" y="0" type="line"/>
		</contour>
	</outline>
	<anchor name="bottom" x="705" y="0"/>
	<anchor name="centerright" x="928" y="750"/>
	<anchor name="top" x="632" y="1500"/>
	<anchor name="topright" x="784" y="1001"/>
	<anchor name="center" x="378" y="750"/>
	<anchor name="liga" x="1264" y="0"/>
</glyph>
<glyph name="M" format="2">
	<unicode hex="004D"/>
	<advance width="2036"/>
	<outline>
		<contour>
			<point x="82.9930419922" y="0" type="line"/>
			<point x="82.9930419922" y="100.9987792969" type="line"/>
			<point x="304.9959716797" y="135.9987792969" type="line"/>
			<point x="305.9959716797" y="747" type="line"/>
			<point x="306.9959716797" y="1351.8013916016" type="line"/>
			<point x="82.9930419922" y="1385.8013916016" type="line"/>
			<point x="82.9930419922" y="1500" type="line"/>
			<point x="556.5832519531" y="1503.2043457031" type="line"/>
			<point x="814.0306396484" y="849.2130126953" type="line"/>
			<point x="1004" y="370" type="line"/>
			<point x="1046" y="256" type="line"/>
			<point x="1056" y="256" type="line"/>
			<point x="1098" y="370" type="line"/>
			<point x="1252.3006591797" y="863.0144042969" type="line"/>
			<point x="1494.3470458984" y="1500" type="line"/>
			<point x="1952.7358398438" y="1500" type="line"/>
			<point x="1952.7358398438" y="1385.8013916016" type="line"/>
			<point x="1746.7329101562" y="1351.8013916016" type="line"/>
			<point x="1745.2751464844" y="751" type="line"/>
			<point x="1746.7329101562" y="135.9987792969" type="line"/>
			<point x="1952.7358398438" y="100.9987792969" type="line"/>
			<point x="1952.7358398438" y="0" type="line"/>
			<point x="1347.8803710938" y="0" type="line"/>
			<point x="1349.2536621094" y="100.9987792969" type="line"/>
			<point x="1570.1529541016" y="135.9987792969" type="line"/>
			<point x="1572.1529541016" y="751" type="line"/>
			<point x="1646" y="1210" type="line"/>
			<point x="1650" y="1329" type="line"/>
			<point x="1640" y="1331" type="line"/>
			<point x="1601" y="1224" type="line"/>
			<point x="1346.4095458984" y="786.7602539062" type="line"/>
			<point x="1056.6616210938" y="-0.3253173828" type="line"/>
			<point x="955.0697021484" y="-0.3253173828" type="line"/>
			<point x="661.5262451172" y="752.662109375" type="line"/>
			<point x="458" y="1229" type="line"/>
			<point x="418" y="1336" type="line"/>
			<point x="408" y="1334" type="line"/>
			<point x="413" y="1215" type="line"/>
			<point x="416.1402587891" y="747" type="line"/>
			<point x="418.1402587891" y="135.9987792969" type="line"/>
			<point x="657.56640625" y="100.9987792969" type="line"/>
			<point x="657.56640625" y="0" type="line"/>
		</contour>
	</outline>
	<anchor name="bottom" x="1025" y="0"/>
	<anchor name="top" x="1058" y="1500"/>
</glyph>
<glyph name="N" format="2">
	<unicode hex="004E"/>
	<advance width="1517"/>
	<outline>
		<contour>
			<point x="82.9930419922" y="0" type="line"/>
			<point x="82.9930419922" y="100.9987792969" type="line"/>
			<point x="294.9959716797" y="134.9987792969" type="line"/>
			<point x="298.9959716797" y="753" type="line"/>
			<point x="296.9959716797" y="1351.8013916016" type="line"/>
			<point x="82.9930419922" y="1385.8013916016" type="line"/>
			<point x="82.9930419922" y="1500" type="line"/>
			<point x="497.0911865234" y="1500" type="line"/>
			<point x="869.9539794922" y="835.4554443359" type="line"/>
			<point x="1148" y="412" type="line"/>
			<point x="1206" y="310" type="line"/>
			<point x="1215" y="313" type="line"/>
			<point x="1211" y="434" type="line"/>
			<point x="1139.4609375" y="756" type="line"/>
			<point x="1133.3764648438" y="1351.8013916016" type="line"/>
			<point x="890.5270996094" y="1385.8013916016" type="line"/>
			<point x="890.5270996094" y="1500" type="line"/>
			<point x="1459.1528320312" y="1500" type="line"/>
			<point x="1459.1528320312" y="1385.8013916016" type="line"/>
			<point x="1242.1499023438" y="1351.8013916016" type="line"/>
			<point x="1237.1499023438" y="756" type="line"/>
			<point x="1239.1499023438" y="-4" type="line"/>
			<point x="1159.1884765625" y="-4" type="line"/>
			<point x="728.6623535156" y="731.1690673828" type="line"/>
			<point x="472" y="1219" type="line"/>
			<point x="414" y="1321" type="line"/>
			<point x="405" y="1318" type="line"/>
			<point x="410" y="1198" type="line"/>
			<point x="398.2855224609" y="751" type="line"/>
			<point x="405.2855224609" y="134.9987792969" type="line"/>
			<point x="640.7116699219" y="100.9987792969" type="line"/>
			<point x="640.7116699219" y="0" type="line"/>
		</contour>
	</outline>
	<anchor name="bottom" x="800" y="0"/>
	<anchor name="top" x="800" y="1500"/>
	<anchor name="engtail" x="1324" y="0"/>
	<anchor name="liga" x="1600" y="0"/>
</glyph>
<glyph name="O" format="2">
	<unicode hex="004F"/>
	<advance width="1663"/>
	<outline>
		<contour>
			<point x="81.001953125" y="742.9071044922" type="qcurve" smooth="yes"/>
			<point x="81.001953125" y="1105"/>
			<point x="531.9970703125" y="1519"/>
			<point x="833.901550293" y="1519" type="qcurve" smooth="yes"/>
			<point x="1134.2944946289" y="1519"/>
			<point x="1581.6774291992" y="1123"/>
			<point x="1581.6774291992" y="770" type="qcurve" smooth="yes"/>
			<point x="1581.6774291992" y="388"/>
			<point x="1137.0310058594" y="-17"/>
			<point x="832.5490860477" y="-17" type="qcurve" smooth="yes"/>
			<point x="530.9271850586" y="-17"/>
			<point x="81.001953125" y="375.2094726562"/>
		</contour>
		<contour>
			<point x="271.6748046875" y="757" type="qcurve" smooth="yes"/>
			<point x="271.6748046875" y="497.6430664062"/>
			<point x="577.0607614825" y="107.7570800781"/>
			<point x="840.2700333134" y="107.7570800781" type="qcurve" smooth="yes"/>
			<point x="1112.1383076329" y="107.7570800781"/>
			<point x="1391.8432873141" y="467.728515625"/>
			<point x="1391.8432873141" y="756" type="qcurve" smooth="yes"/>
			<point x="1391.8432873141" y="1003.7421875"/>
			<point x="1093.0459555349" y="1387.1784667969"/>
			<point x="825.3629288212" y="1387.1784667969" type="qcurve" smooth="yes"/>
			<point x="552.2123964371" y="1387.1784667969"/>
			<point x="271.6748046875" y="1039.0068359375"/>
		</contour>
	</outline>
	<anchor name="bottom" x="832" y="0"/>
	<anchor name="center" x="832" y="750"/>
	<anchor name="ogonek" x="1064" y="0"/>
	<anchor name="top" x="832" y="1500"/>
	<anchor name="topright" x="1028" y="1500"/>
	<anchor name="tonos" x="140" y="1500"/>
	<anchor name="_yu_dash" x="169" y="755"/>
</glyph>
<glyph name="Q" format="2">
	<unicode hex="0051"/>
	<advance width="1661"/>
	<outline>
		<contour>
			<point x="81.001953125" y="742.4494018555" type="qcurve" smooth="yes"/>
			<point x="81.001953125" y="1092.6202392578"/>
			<point x="507.7465643114" y="1519"/>
			<point x="828.5150579637" y="1519" type="qcurve" smooth="yes"/>
			<point x="1156.2211126512" y="1519"/>
			<point x="1579.0356701266" y="1119"/>
			<point x="1579.0356701266" y="756.435483871" type="qcurve" smooth="yes"/>
			<point x="1579.0356701266" y="423.0080645161"/>
			<point x="1146.4085122386" y="-13.3306451613"/>
			<point x="833.0425592238" y="-13.3306451613" type="qcurve" smooth="yes"/>
			<point x="509.005652643" y="-13.3306451613"/>
			<point x="81.001953125" y="403.076171875"/>
		</contour>
		<contour>
			<point x="271.8143310547" y="779.26834008" type="qcurve" smooth="yes"/>
			<point x="270.2498149257" y="469.7382320281"/>
			<point x="572.7502795804" y="119.2087559854"/>
			<point x="831.2054010207" y="118.4506993448" type="qcurve" smooth="yes"/>
			<point x="1107.9043677546" y="117.6926427042"/>
			<point x="1389.787808326" y="418.3709441154"/>
			<point x="1389.2232921969" y="760.435483871" type="qcurve" smooth="yes"/>
			<point x="1387.6587760679" y="1016.3526886971"/>
			<point x="1096.3151205739" y="1387.1784667969"/>
			<point x="832.3862442509" y="1387.1784667969" type="qcurve" smooth="yes"/>
			<point x="555.2357118668" y="1387.1784667969"/>
			<point x="272.3788471837" y="1058.2282380135"/>
		</contour>
		<contour>
			<point x="573" y="-39" type="qcurve"/>
			<point x="1290" y="-274" type="line"/>
			<point x="1350" y="-274"/>
			<point x="1442" y="-186"/>
			<point x="1475" y="-132" type="qcurve"/>
			<point x="1565" y="-184" type="line"/>
			<point x="1515" y="-288"/>
			<point x="1371" y="-429"/>
			<point x="1239" y="-429" type="qcurve"/>
			<point x="540" y="-194" type="line"/>
			<point x="479" y="-194"/>
			<point x="363" y="-236"/>
			<point x="306" y="-288" type="qcurve"/>
			<point x="238" y="-224" type="line"/>
			<point x="299" y="-132"/>
			<point x="476" y="-39"/>
		</contour>
		<contour>
			<point x="559.7252197266" y="-28.4625244141" type="line"/>
			<point x="671.3322143555" y="65.9982910156" type="line"/>
			<point x="759.1349487305" y="-11.4030761719" type="line"/>
			<point x="649.3916015625" y="-88.4167480469" type="line"/>
		</contour>
	</outline>
	<anchor name="bottom" x="832" y="0"/>
	<anchor name="top" x="823" y="1502"/>
</glyph>
<glyph name="R" format="2">
	<unicode hex="0052"/>
	<advance width="1414"/>
	<outline>
		<contour>
			<point x="83.7009887695" y="0" type="line"/>
			<point x="83.7009887695" y="99.9987792969" type="line"/>
			<point x="290.703918457" y="134.9987792969" type="line"/>
			<point x="292.703918457" y="773" type="line"/>
			<point x="290.703918457" y="1351.8013916016" type="line"/>
			<point x="83.7009887695" y="1385.8013916016" type="line"/>
			<point x="83.7009887695" y="1500" type="line"/>
			<point x="755.8103184854" y="1500" type="line" smooth="yes"/>
			<point x="966.7821163055" y="1499"/>
			<point x="1183.910711473" y="1311"/>
			<point x="1183.910711473" y="1132" type="qcurve" smooth="yes"/>
			<point x="1183.910711473" y="972"/>
			<point x="980.2929904077" y="735.8388671875"/>
			<point x="738.5987706339" y="735.8388671875" type="qcurve" smooth="yes"/>
			<point x="660.3935212167" y="735.8388671875"/>
			<point x="437.8591308594" y="740.87109375"/>
			<point x="374.5122680664" y="747.9033203125" type="qcurve"/>
			<point x="376.5122680664" y="841.3059082031" type="line"/>
			<point x="666.9209594727" y="839.3059082031" type="line" smooth="yes"/>
			<point x="879.6253051758" y="838.3059082031"/>
			<point x="1003.6966592112" y="1024.7922363281"/>
			<point x="1003.6966592112" y="1137" type="qcurve" smooth="yes"/>
			<point x="1003.6966592112" y="1275.4841308594"/>
			<point x="886.9642944336" y="1385.8557128906"/>
			<point x="702.3303833008" y="1385.8557128906" type="qcurve" smooth="yes"/>
			<point x="495.2838745117" y="1385.8557128906" type="line"/>
			<point x="471.2838745117" y="1363.8557128906" type="line"/>
			<point x="468.2838745117" y="809" type="line"/>
			<point x="470.2838745117" y="134.9987792969" type="line"/>
			<point x="681.825378418" y="100.9987792969" type="line"/>
			<point x="681.825378418" y="0" type="line"/>
		</contour>
		<contour>
			<point x="691.3700955298" y="784.6772460938" type="line"/>
			<point x="873.2271886026" y="821.9668874433" type="line"/>
			<point x="1192.9274095105" y="288" type="line" smooth="yes"/>
			<point x="1316.4337079448" y="87.6080381332"/>
			<point x="1428.0953979492" y="97.0096435547"/>
			<point x="1449.5186767578" y="104.9987792969" type="qcurve"/>
			<point x="1449.5186767578" y="0" type="line"/>
			<point x="1178.8786621094" y="0" type="line"/>
			<point x="1153.7393798828" y="30" type="line"/>
		</contour>
	</outline>
	<anchor name="bottom" x="803" y="0"/>
	<anchor name="top" x="630" y="1500"/>
</glyph>
<glyph name="T" format="2">
	<unicode hex="0054"/>
	<advance width="1247"/>
	<outline>
		<contour>
			<point x="24.1589355469" y="1056.8463134766" type="line"/>
			<point x="24.1589355469" y="1500" type="line"/>
			<point x="1222.4096069336" y="1500" type="line"/>
			<point x="1222.4096069336" y="1056.8463134766" type="line"/>
			<point x="1113.4064331055" y="1056.8463134766" type="line"/>
			<point x="1077.4059448242" y="1386.8557128906" type="line"/>
			<point x="756.7069702148" y="1386.8557128906" type="line"/>
			<point x="711.7069702148" y="1374.8557128906" type="line"/>
			<point x="711.4279174805" y="754" type="line"/>
			<point x="713.7069702148" y="134.9987792969" type="line"/>
			<point x="931.6907958984" y="99.9987792969" type="line"/>
			<point x="931.6907958984" y="0" type="line"/>
			<point x="310.7004394531" y="0" type="line"/>
			<point x="310.7004394531" y="99.9987792969" type="line"/>
			<point x="531.5689086914" y="134.9987792969" type="line"/>
			<point x="533.8479614258" y="754" type="line"/>
			<point x="535.5689086914" y="1374.8557128906" type="line"/>
			<point x="490.5689086914" y="1386.8557128906" type="line"/>
			<point x="159.1625976562" y="1386.8557128906" type="line"/>
			<point x="133.162109375" y="1056.8463134766" type="line"/>
		</contour>
	</outline>
	<anchor name="bottom" x="644" y="0"/>
	<anchor name="center" x="644" y="750"/>
	<anchor name="top" x="644" y="1500"/>
	<anchor name="cy_descender" x="951" y="100"/>
</glyph>
<glyph name="U" format="2">
	<unicode hex="0055"/>
	<advance width="1747"/>
	<outline>
		<contour>
			<point x="87.1778564453" y="1385.8013916016" type="line"/>
			<point x="87.1778564453" y="1500" type="line"/>
			<point x="645.6190795898" y="1500" type="line"/>
			<point x="645.6190795898" y="1385.8013916016" type="line"/>
			<point x="462.0584716797" y="1351.8013916016" type="line"/>
			<point x="459.0584716797" y="794" type="line"/>
			<point x="462.03515625" y="380.7897949219" type="line" smooth="yes"/>
			<point x="463.5932617188" y="232.7897949219"/>
			<point x="680.1065063477" y="121.2087402344"/>
			<point x="895.1616821289" y="121.2087402344" type="qcurve" smooth="yes"/>
			<point x="1079.3743286133" y="121.2087402344"/>
			<point x="1346.2357788086" y="252.9995117188"/>
			<point x="1348.854309082" y="458.9995117188" type="qcurve" smooth="yes"/>
			<point x="1353.3704223633" y="794" type="line"/>
			<point x="1347.9239501953" y="1351.8013916016" type="line"/>
			<point x="1115.0703833796" y="1385.8013916016" type="line"/>
			<point x="1115.0703833796" y="1500" type="line"/>
			<point x="1677.7726538874" y="1500" type="line"/>
			<point x="1677.7726538874" y="1385.8013916016" type="line"/>
			<point x="1471.1971435547" y="1351.8013916016" type="line"/>
			<point x="1467.5415039062" y="794" type="line"/>
			<point x="1469.885559082" y="415" type="line" smooth="yes"/>
			<point x="1471.9194946289" y="190"/>
			<point x="1161.0234808153" y="-16"/>
			<point x="894.2585390152" y="-16" type="qcurve" smooth="yes"/>
			<point x="607.704776887" y="-16"/>
			<point x="278.6180419922" y="172"/>
			<point x="279.7575683594" y="373" type="qcurve" smooth="yes"/>
			<point x="282.7575683594" y="794" type="line"/>
			<point x="279.7575683594" y="1351.8013916016" type="line"/>
		</contour>
	</outline>
	<anchor name="bottom" x="832" y="0"/>
	<anchor name="ogonek" x="1042" y="0"/>
	<anchor name="top" x="832" y="1500"/>
	<anchor name="topright" x="1590" y="1500"/>
</glyph>
<glyph name="V" format="2">
	<unicode hex="0056"/>
	<advance width="1454"/>
	<outline>
		<contour>
			<point x="-24.6946411133" y="1388.8013916016" type="line"/>
			<point x="-24.6946411133" y="1500" type="line"/>
			<point x="496.3203735352" y="1500" type="line"/>
			<point x="496.3203735352" y="1388.8013916016" type="line"/>
			<point x="310.0103149414" y="1353.8013916016" type="line"/>
			<point x="516.8703613281" y="841.2799072266" type="line"/>
			<point x="695.3673706055" y="353.3492431641" type="line"/>
			<point x="744.6681518555" y="186.2353515625" type="line"/>
			<point x="744.6681518555" y="186.2353515625" type="line"/>
			<point x="792.6054077148" y="353.4887695312" type="line"/>
			<point x="957.25" y="835.0313720703" type="line"/>
			<point x="1149.6555786133" y="1352.6851806641" type="line"/>
			<point x="906.94140625" y="1387.6851806641" type="line"/>
			<point x="906.94140625" y="1498.8837890625" type="line"/>
			<point x="1507.7880249023" y="1500" type="line"/>
			<point x="1507.7880249023" y="1388.8013916016" type="line"/>
			<point x="1281.0547485352" y="1355.8013916016" type="line"/>
			<point x="1055.3870849609" y="770.4439697266" type="line"/>
			<point x="776.0121459961" y="-6" type="line"/>
			<point x="656.1594848633" y="-6" type="line"/>
			<point x="364.5003662109" y="778.2004394531" type="line"/>
			<point x="137.6154174805" y="1353.8013916016" type="line"/>
		</contour>
	</outline>
	<anchor name="bottom" x="723" y="0"/>
	<anchor name="top" x="733" y="1500"/>
</glyph>
<glyph name="W" format="2">
	<unicode hex="0057"/>
	<advance width="1957"/>
	<outline>
		<contour>
			<point x="576.7026977539" y="-6" type="line"/>
			<point x="328.2191162109" y="755.6173095703" type="line"/>
			<point x="137.6154174805" y="1352.8013916016" type="line"/>
			<point x="-21.6946411133" y="1388.8013916016" type="line"/>
			<point x="-21.6946411133" y="1500" type="line"/>
			<point x="478.2622680664" y="1500" type="line"/>
			<point x="478.2622680664" y="1388.8013916016" type="line"/>
			<point x="310.1057739258" y="1353.8013916016" type="line"/>
			<point x="488.7099609375" y="805.9064941406" type="line"/>
			<point x="625.9229125977" y="368.7653808594" type="line"/>
			<point x="676.4146118164" y="203.9517822266" type="line"/>
			<point x="676.4146118164" y="203.9517822266" type="line"/>
			<point x="726.1278686523" y="369.3447265625" type="line"/>
			<point x="807.8212280273" y="666.8708496094" type="line"/>
			<point x="916.4783325195" y="954.7297363281" type="line"/>
			<point x="818.4227905273" y="1357.2012939453" type="line"/>
			<point x="661.1127319336" y="1392.2012939453" type="line"/>
			<point x="661.1127319336" y="1500" type="line"/>
			<point x="1167.7026977539" y="1500" type="line"/>
			<point x="1167.7026977539" y="1392.2012939453" type="line"/>
			<point x="1001.3926391602" y="1358.2012939453" type="line"/>
			<point x="1165.2173461914" y="855.1258544922" type="line"/>
			<point x="1280.4354858398" y="364.9750976562" type="line"/>
			<point x="1321.0997924805" y="209.4034423828" type="line"/>
			<point x="1321.0997924805" y="209.4034423828" type="line"/>
			<point x="1360.1655883789" y="365.4149169922" type="line"/>
			<point x="1629" y="803" type="line"/>
			<point x="1643.7271118164" y="1353.8013916016" type="line"/>
			<point x="1432.5897216797" y="1387.8013916016" type="line"/>
			<point x="1432.5897216797" y="1500" type="line"/>
			<point x="1998.918762207" y="1500" type="line"/>
			<point x="1998.918762207" y="1387.8013916016" type="line"/>
			<point x="1780.7622680664" y="1352.8013916016" type="line"/>
			<point x="1747" y="760" type="line"/>
			<point x="1353.9292602539" y="-6" type="line"/>
			<point x="1218.4495239258" y="-6" type="line"/>
			<point x="1005.9934692383" y="751.2362060547" type="line"/>
			<point x="976.6473999023" y="839.9473876953" type="line"/>
			<point x="976.6473999023" y="839.9473876953" type="line"/>
			<point x="926.0360717773" y="647.3386230469" type="line"/>
			<point x="723.8849487305" y="-6" type="line"/>
		</contour>
	</outline>
	<anchor name="bottom" x="1051" y="0"/>
	<anchor name="top" x="1051" y="1500"/>
</glyph>
<glyph name="X" format="2">
	<unicode hex="0058"/>
	<advance width="1267"/>
	<outline>
		<contour>
			<point x="-33.5482788086" y="0" type="line"/>
			<point x="-35.5482788086" y="101.9987792969" type="line"/>
			<point x="185.7617797852" y="133.9987792969" type="line"/>
			<point x="575" y="786" type="line"/>
			<point x="230.9801635742" y="1351.8013916016" type="line"/>
			<point x="57.0933227539" y="1385.8013916016" type="line"/>
			<point x="57.0933227539" y="1500" type="line"/>
			<point x="565.2908935547" y="1500" type="line"/>
			<point x="565.2908935547" y="1385.8013916016" type="line"/>
			<point x="423.7692260742" y="1351.8013916016" type="line"/>
			<point x="608.0294799805" y="1022.3833618164" type="line"/>
			<point x="679.239074707" y="933.9963378906" type="line"/>
			<point x="679.239074707" y="933.9963378906" type="line"/>
			<point x="751" y="1043" type="line"/>
			<point x="933.7459106445" y="1353.8013916016" type="line"/>
			<point x="719.4549560547" y="1385.8013916016" type="line"/>
			<point x="719.4549560547" y="1500" type="line"/>
			<point x="1272.6071166992" y="1500" type="line"/>
			<point x="1272.6071166992" y="1385.8013916016" type="line"/>
			<point x="1064.873840332" y="1353.8013916016" type="line"/>
			<point x="726.473449707" y="850.7529296875" type="line"/>
			<point x="1147.9805297852" y="135.9987792969" type="line"/>
			<point x="1325.2905883789" y="101.9987792969" type="line"/>
			<point x="1325.2905883789" y="0" type="line"/>
			<point x="783.3907470703" y="0" type="line"/>
			<point x="783.3907470703" y="101.9987792969" type="line"/>
			<point x="956.9124145508" y="135.9987792969" type="line"/>
			<point x="706.48046875" y="573.9520263672" type="line"/>
			<point x="638.1802368164" y="672.4599609375" type="line"/>
			<point x="638.1802368164" y="672.4599609375" type="line"/>
			<point x="577" y="562" type="line"/>
			<point x="318.8897094727" y="132.9987792969" type="line"/>
			<point x="522.1806640625" y="101.9987792969" type="line"/>
			<point x="522.1806640625" y="0" type="line"/>
		</contour>
	</outline>
	<anchor name="bottom" x="661" y="0"/>
	<anchor name="top" x="673" y="1500"/>
	<anchor name="cy_descender" x="1386" y="100"/>
	<anchor name="center" x="663" y="811"/>
</glyph>
<glyph name="Y" format="2">
	<unicode hex="0059"/>
	<advance width="1243"/>
	<outline>
		<contour>
			<point x="280.5375976562" y="0" type="line"/>
			<point x="280.5375976562" y="102.9987792969" type="line"/>
			<point x="496.8483886719" y="135.9987792969" type="line"/>
			<point x="499.1274414062" y="672.8371582031" type="line"/>
			<point x="292.8090820312" y="1025.8660888672" type="line"/>
			<point x="93.1903076172" y="1351.8013916016" type="line"/>
			<point x="-58.5811767578" y="1385.8013916016" type="line"/>
			<point x="-58.5811767578" y="1500" type="line"/>
			<point x="448.1530151367" y="1500" type="line"/>
			<point x="448.1530151367" y="1385.8013916016" type="line"/>
			<point x="301.7084960938" y="1351.8013916016" type="line"/>
			<point x="440.4445800781" y="1118.0144042969" type="line"/>
			<point x="619.4313964844" y="766.8404541016" type="line"/>
			<point x="619.4313964844" y="766.8404541016" type="line"/>
			<point x="816.108581543" y="1134.5751953125" type="line"/>
			<point x="947.7906494141" y="1352.8013916016" type="line"/>
			<point x="728.0764770508" y="1385.8013916016" type="line"/>
			<point x="728.0764770508" y="1500" type="line"/>
			<point x="1297.9937744141" y="1500" type="line"/>
			<point x="1297.9937744141" y="1385.8013916016" type="line"/>
			<point x="1096.6837158203" y="1351.8013916016" type="line"/>
			<point x="899.4203491211" y="1050.0983886719" type="line"/>
			<point x="677.3259277344" y="674.5992431641" type="line"/>
			<point x="678.8469238281" y="135.9987792969" type="line"/>
			<point x="896.2730712891" y="102.9987792969" type="line"/>
			<point x="896.2730712891" y="0" type="line"/>
		</contour>
	</outline>
	<anchor name="bottom" x="636" y="0"/>
	<anchor name="top" x="640" y="1500"/>
	<anchor name="tonos" x="-100" y="1500"/>
	<anchor name="center" x="636" y="582"/>
</glyph>
<glyph name="Z" format="2">
	<unicode hex="005A"/>
	<advance width="1079"/>
	<outline>
		<contour>
			<point x="36.3724365234" y="0" type="line"/>
			<point x="6.9371337891" y="97.0639648438" type="line"/>
			<point x="781.8697509766" y="1379.8557128906" type="line"/>
			<point x="777.8697509766" y="1385.8557128906" type="line"/>
			<point x="239.8056640625" y="1385.8557128906" type="line"/>
			<point x="145.1013183594" y="1120.7907714844" type="line"/>
			<point x="39.9533691406" y="1120.7907714844" type="line"/>
			<point x="39.9533691406" y="1500" type="line"/>
			<point x="994.9774799962" y="1500" type="line"/>
			<point x="994.9774799962" y="1401.6296386719" type="line"/>
			<point x="225.300923009" y="118.5637207031" type="line"/>
			<point x="229.300923009" y="104.5637207031" type="line"/>
			<point x="855.0506591797" y="104.5637207031" type="line"/>
			<point x="1004.7670307774" y="397.0076904297" type="line"/>
			<point x="1102.5021992345" y="397.0076904297" type="line"/>
			<point x="1042.6347065587" y="0" type="line"/>
		</contour>
	</outline>
	<anchor name="bottom" x="583" y="0"/>
	<anchor name="top" x="583" y="1500"/>
	<anchor name="_liga" x="0" y="0"/>
</glyph>
<glyph name="a" format="2">
	<unicode hex="0061"/>
	<advance width="1094"/>
	<outline>
		<contour>
			<point x="68.5493164062" y="234.7099609375" type="qcurve" smooth="yes"/>
			<point x="68.5493164062" y="381.0649414062"/>
			<point x="416" y="583"/>
			<point x="780" y="630" type="qcurve"/>
			<point x="768.2180786133" y="545.860168457" type="line"/>
			<point x="567.438659668" y="533.7360839844"/>
			<point x="245.3168945312" y="395.1181030273"/>
			<point x="245.3168945312" y="252.9190063477" type="qcurve" smooth="yes"/>
			<point x="245.3168945312" y="182.7092895508"/>
			<point x="330.7090454102" y="114.5928955078"/>
			<point x="406.2406616211" y="114.5928955078" type="qcurve" smooth="yes"/>
			<point x="482.3643798828" y="114.5928955078"/>
			<point x="687.7802124023" y="191.3923339844"/>
			<point x="706.8098754883" y="240.3829345703" type="qcurve"/>
			<point x="709.1555786133" y="640.7588500977" type="line" smooth="yes"/>
			<point x="710.3284301758" y="841.3828125"/>
			<point x="584.0979614258" y="916.7296142578"/>
			<point x="472.8082885742" y="916.7296142578" type="qcurve" smooth="yes"/>
			<point x="383.537902832" y="916.7296142578"/>
			<point x="280.8013305664" y="902.9517822266"/>
			<point x="265.6765136719" y="893.8287353516" type="qcurve"/>
			<point x="249.7337036133" y="888.5570068359"/>
			<point x="301.2225952148" y="839.4949951172"/>
			<point x="302.9710693359" y="791.7664794922" type="qcurve" smooth="yes"/>
			<point x="308.9520874023" y="746.7537841797"/>
			<point x="248.5952148438" y="704.1483154297"/>
			<point x="212.3725585938" y="704.1483154297" type="qcurve" smooth="yes"/>
			<point x="169.2856445312" y="704.1483154297"/>
			<point x="112.6976318359" y="766.5809326172"/>
			<point x="112.6976318359" y="831.8778076172" type="qcurve" smooth="yes"/>
			<point x="112.6976318359" y="913.9149169922"/>
			<point x="326.5029296875" y="1027.5819091797"/>
			<point x="514.1990966797" y="1027.5819091797" type="qcurve" smooth="yes"/>
			<point x="691.6915283203" y="1027.5819091797"/>
			<point x="878.2932739258" y="867.5425415039"/>
			<point x="879.2932739258" y="697.139831543" type="qcurve" smooth="yes"/>
			<point x="884.2932739258" y="116" type="line"/>
			<point x="1033.7932739258" y="81" type="line"/>
			<point x="1033.7932739258" y="0" type="line"/>
			<point x="736.7366333008" y="0" type="line"/>
			<point x="718.9212036133" y="23.4326171875" type="line"/>
			<point x="707.5748291016" y="129.3325805664" type="line"/>
			<point x="676.3973999023" y="68.6366577148"/>
			<point x="444.4346923828" y="-13"/>
			<point x="309.2971801758" y="-13" type="qcurve" smooth="yes"/>
			<point x="213.8721313477" y="-13"/>
			<point x="68.5493164062" y="125.4823608398"/>
		</contour>
	</outline>
	<anchor name="bottom" x="548" y="0"/>
	<anchor name="ogonek" x="878" y="0"/>
	<anchor name="top" x="514" y="1000"/>
</glyph>
<glyph name="b" format="2">
	<unicode hex="0062"/>
	<advance width="1168"/>
	<outline>
		<contour>
			<point x="184.7523803711" y="0" type="line"/>
			<point x="189.6537475586" y="527" type="line"/>
			<point x="185.7523803711" y="1380.0441894531" type="line"/>
			<point x="16.2523803711" y="1424.0441894531" type="line"/>
			<point x="16.2523803711" y="1518.5441894531" type="line"/>
			<point x="318.5443725586" y="1536.0012207031" type="line"/>
			<point x="345.5443725586" y="1534.0012207031" type="line"/>
			<point x="367.6185913086" y="1504.0012207031" type="line"/>
			<point x="365.2728881836" y="933.8226318359" type="line"/>
			<point x="411.6166381836" y="965.1289672852"/>
			<point x="579.0646362305" y="1026.5819091797"/>
			<point x="681.255065918" y="1026.5819091797" type="qcurve" smooth="yes"/>
			<point x="873.9204711914" y="1026.5819091797"/>
			<point x="1099.1736450195" y="803.0764770508"/>
			<point x="1099.1736450195" y="536.5841674805" type="qcurve" smooth="yes"/>
			<point x="1099.1736450195" y="258.3719482422"/>
			<point x="867.7958374023" y="-10"/>
			<point x="629.118347168" y="-14" type="qcurve" smooth="yes"/>
			<point x="541.7592163086" y="-16"/>
			<point x="376.9478149414" y="47.1226196289"/>
			<point x="327.457824707" y="90.895690918" type="qcurve"/>
			<point x="271.012512207" y="0" type="line"/>
		</contour>
		<contour>
			<point x="365.5443725586" y="462.5579223633" type="line"/>
			<point x="360.5443725586" y="190.3278198242" type="line"/>
			<point x="365.479675293" y="166.2503662109"/>
			<point x="563.6168823242" y="89.7781982422"/>
			<point x="643.0587768555" y="89.7781982422" type="qcurve" smooth="yes"/>
			<point x="783.5272827148" y="89.7781982422"/>
			<point x="916.578918457" y="295.2463989258"/>
			<point x="916.578918457" y="504.2909545898" type="qcurve" smooth="yes"/>
			<point x="916.578918457" y="710.8834838867"/>
			<point x="806.0936889648" y="903.3592529297"/>
			<point x="661.9780883789" y="903.3592529297" type="qcurve" smooth="yes"/>
			<point x="565.6483764648" y="903.3592529297"/>
			<point x="408.3405151367" y="844.4618530273"/>
			<point x="361.5443725586" y="796.7658081055" type="qcurve"/>
		</contour>
	</outline>
	<anchor name="bottom" x="571" y="0"/>
	<anchor name="top" x="571" y="1533"/>
</glyph>
<glyph name="c" format="2">
	<unicode hex="0063"/>
	<advance width="912"/>
	<outline>
		<contour>
			<point x="63.9981689453" y="472.2037353516" type="qcurve" smooth="yes"/>
			<point x="63.9981689453" y="714.7307739258"/>
			<point x="309.6397705078" y="1024.9954833984"/>
			<point x="491.1487426758" y="1024.9954833984" type="qcurve" smooth="yes"/>
			<point x="592.4883422852" y="1024.9954833984"/>
			<point x="727.4381713867" y="985.6622314453"/>
			<point x="753.6343383789" y="960.4400634766" type="qcurve"/>
			<point x="784.8256225586" y="1030.7006835938" type="line"/>
			<point x="870.9918212891" y="1030.7006835938" type="line"/>
			<point x="865.9918212891" y="723.5850830078" type="line"/>
			<point x="775.9356079102" y="723.5850830078" type="line"/>
			<point x="757.1887817383" y="794.9954833984" type="line" smooth="yes"/>
			<point x="746.6877441406" y="846.1989135742"/>
			<point x="615.1614379883" y="910.2172851562"/>
			<point x="527.5036621094" y="910.2172851562" type="qcurve" smooth="yes"/>
			<point x="383.7116088867" y="910.2172851562"/>
			<point x="244.5557861328" y="683.1876220703"/>
			<point x="244.5557861328" y="492.9977416992" type="qcurve" smooth="yes"/>
			<point x="244.5557861328" y="303.2598876953"/>
			<point x="397.5977172852" y="110.9262695312"/>
			<point x="544.154296875" y="110.9262695312" type="qcurve" smooth="yes"/>
			<point x="677.4624023438" y="110.9262695312"/>
			<point x="835.9584960938" y="154.8520507812"/>
			<point x="893.5483398438" y="202" type="qcurve"/>
			<point x="943.9108886719" y="152.4442138672" type="line"/>
			<point x="899.3160400391" y="82.5554199219"/>
			<point x="691.5345458984" y="-17"/>
			<point x="512.8851318359" y="-17" type="qcurve" smooth="yes"/>
			<point x="321.2182617188" y="-17"/>
			<point x="63.9981689453" y="254.4606323242"/>
		</contour>
	</outline>
	<anchor name="bottom" x="563" y="0"/>
	<anchor name="top" x="534" y="1000"/>
</glyph>
<glyph name="d" format="2">
	<unicode hex="0064"/>
	<advance width="1199"/>
	<outline>
		<contour>
			<point x="66.3314208984" y="485.6675415039" type="qcurve" smooth="yes"/>
			<point x="66.3314208984" y="722.0693359375"/>
			<point x="341.1838378906" y="1038.5819091797"/>
			<point x="578.9094238281" y="1038.5819091797" type="qcurve" smooth="yes"/>
			<point x="657.1784667969" y="1038.5819091797"/>
			<point x="822.3698730469" y="990.5316772461"/>
			<point x="830.7589111328" y="973.1289672852" type="qcurve"/>
			<point x="824.1514892578" y="1384.5012207031" type="line"/>
			<point x="634.6514892578" y="1427.5012207031" type="line"/>
			<point x="634.6514892578" y="1522.0012207031" type="line"/>
			<point x="956.5491943359" y="1534.0012207031" type="line"/>
			<point x="989.1419677734" y="1533.0012207031" type="line"/>
			<point x="1010.6361083984" y="1501.0012207031" type="line"/>
			<point x="1007.7718505859" y="533.0740966797" type="line"/>
			<point x="1014.3275146484" y="116" type="line"/>
			<point x="1165.8275146484" y="81" type="line"/>
			<point x="1165.8275146484" y="0" type="line"/>
			<point x="879.8062744141" y="0" type="line"/>
			<point x="855.9627685547" y="16" type="line"/>
			<point x="838.2534179688" y="96.7592773438" type="line"/>
			<point x="802.5856933594" y="64.155090332"/>
			<point x="637.3419189453" y="-13"/>
			<point x="526.3896484375" y="-13" type="qcurve" smooth="yes"/>
			<point x="328.1842041016" y="-13"/>
			<point x="66.3314208984" y="252.1582641602"/>
		</contour>
		<contour>
			<point x="246.9261474609" y="510.2909545898" type="qcurve" smooth="yes"/>
			<point x="246.9261474609" y="311.2074584961"/>
			<point x="393.0743408203" y="114.8153076172"/>
			<point x="528.2486572266" y="114.0004882812" type="qcurve" smooth="yes"/>
			<point x="639.5461425781" y="113.1856689453"/>
			<point x="789.4128417969" y="174.3229980469"/>
			<point x="838.9798583984" y="220.7420043945" type="qcurve"/>
			<point x="838.0650634766" y="574.4375610352" type="line"/>
			<point x="834.0650634766" y="795.1329956055" type="line"/>
			<point x="800.7116699219" y="851.1076660156"/>
			<point x="668.0570068359" y="918.9147949219"/>
			<point x="579.9001464844" y="918.9147949219" type="qcurve" smooth="yes"/>
			<point x="426.3435668945" y="918.9147949219"/>
			<point x="246.9261474609" y="666.6498413086"/>
		</contour>
	</outline>
	<anchor name="bottom" x="604" y="0"/>
	<anchor name="center" x="876" y="1202"/>
	<anchor name="top" x="604" y="1534"/>
	<anchor name="topright" x="961" y="1000"/>
	<anchor name="liga" x="1207" y="0"/>
</glyph>
<glyph name="e" format="2">
	<unicode hex="0065"/>
	<advance width="1018"/>
	<outline>
		<contour>
			<point x="64.664855957" y="500.6741943359" type="qcurve" smooth="yes"/>
			<point x="64.664855957" y="753.3303222656"/>
			<point x="322.7484741211" y="1023.8488769531"/>
			<point x="538.4843139648" y="1023.8488769531" type="qcurve" smooth="yes"/>
			<point x="732.9010620117" y="1023.8488769531"/>
			<point x="961.7503051758" y="789.7963867188"/>
			<point x="971.5150756836" y="589.9530639648" type="qcurve"/>
			<point x="971.5150756836" y="532.3602905273" type="line"/>
			<point x="166" y="528" type="line"/>
			<point x="166" y="624" type="line"/>
			<point x="800.1674194336" y="627.2124633789" type="line"/>
			<point x="789.348449707" y="723.7902832031"/>
			<point x="619.435546875" y="911.1076660156"/>
			<point x="502.7015991211" y="911.1076660156" type="qcurve" smooth="yes"/>
			<point x="382.4973144531" y="911.1076660156"/>
			<point x="246.9262084961" y="715.7626953125"/>
			<point x="247.741027832" y="511.1312255859" type="qcurve" smooth="yes"/>
			<point x="247.555847168" y="300.3335571289"/>
			<point x="430.1677856445" y="107.0003662109"/>
			<point x="554.9898071289" y="107.0003662109" type="qcurve" smooth="yes"/>
			<point x="661.1930541992" y="107.0003662109"/>
			<point x="811.4891967773" y="142.2224121094"/>
			<point x="870.1421508789" y="204.5926513672" type="qcurve"/>
			<point x="922.1793823242" y="153.0368652344" type="line"/>
			<point x="867.7850952148" y="63.7036132812"/>
			<point x="664.9478149414" y="-17"/>
			<point x="522.9603881836" y="-17" type="qcurve" smooth="yes"/>
			<point x="321.0729370117" y="-17"/>
			<point x="64.664855957" y="259.1665039062"/>
		</contour>
	</outline>
	<anchor name="bottom" x="578" y="0"/>
	<anchor name="ogonek" x="744" y="0"/>
	<anchor name="top" x="539" y="1000"/>
</glyph>
<glyph name="g" format="2">
	<unicode hex="0067"/>
	<advance width="896"/>
	<outline>
		<contour>
			<point x="28.3464355469" y="-239.1767578125" type="qcurve" smooth="yes"/>
			<point x="28.3464355469" y="-156.309753418"/>
			<point x="90.7366943359" y="-42.4053344727"/>
			<point x="207.5225830078" y="32.8530883789" type="qcurve"/>
			<point x="353.2658081055" y="19.6108398438" type="line"/>
			<point x="162.2147827148" y="-94.4981079102"/>
			<point x="93.9157714844" y="-221.3827514648"/>
			<point x="93.9157714844" y="-249.1500244141" type="qcurve" smooth="yes"/>
			<point x="93.9157714844" y="-347.2875976562"/>
			<point x="260.7652587891" y="-388.3491210938"/>
			<point x="506.3962402344" y="-388.3491210938" type="qcurve" smooth="yes"/>
			<point x="656.6491699219" y="-388.3491210938"/>
			<point x="918.9389648438" y="-339.9771728516"/>
			<point x="918.9389648438" y="-250.4066162109" type="qcurve" smooth="yes"/>
			<point x="918.9389648438" y="-162.5314941406"/>
			<point x="692.1033935547" y="-107.8717041016"/>
			<point x="443.0198974609" y="-64.8475341797" type="qcurve" smooth="yes"/>
			<point x="255.9205322266" y="-26.1637573242"/>
			<point x="65.0521240234" y="54.1854248047"/>
			<point x="65.0521240234" y="136.3720092773" type="qcurve" smooth="yes"/>
			<point x="65.0521240234" y="201.7826538086"/>
			<point x="219.3947753906" y="304.9834594727"/>
			<point x="298.2222900391" y="346.3634643555" type="qcurve"/>
			<point x="325.17578125" y="290.6950073242" type="line"/>
			<point x="269.9940185547" y="263.4606933594"/>
			<point x="150.7445068359" y="205.4226074219"/>
			<point x="150.7445068359" y="163.4312744141" type="qcurve" smooth="yes"/>
			<point x="150.7445068359" y="131.109375"/>
			<point x="336.8542480469" y="134.9604492188"/>
			<point x="520.5661621094" y="99.2159423828" type="qcurve" smooth="yes"/>
			<point x="793.2186279297" y="62.6309204102"/>
			<point x="1009.7670898438" y="-23.005859375"/>
			<point x="1009.7670898438" y="-152.8677368164" type="qcurve" smooth="yes"/>
			<point x="1009.7670898438" y="-298.3747558594"/>
			<point x="764.3109130859" y="-480.4235839844"/>
			<point x="453.5041503906" y="-480.4235839844" type="qcurve" smooth="yes"/>
			<point x="237.0247802734" y="-480.4235839844"/>
			<point x="28.3464355469" y="-361.3715820312"/>
		</contour>
		<contour>
			<point x="62.3051757812" y="670.7418823242" type="qcurve" smooth="yes"/>
			<point x="62.3051757812" y="823.4002075195"/>
			<point x="273.6741943359" y="1023.8488769531"/>
			<point x="442.3056640625" y="1023.8488769531" type="qcurve" smooth="yes"/>
			<point x="614.4185791016" y="1023.8488769531"/>
			<point x="826.3265380859" y="832.4002075195"/>
			<point x="826.3265380859" y="677.6979980469" type="qcurve" smooth="yes"/>
			<point x="827.3265380859" y="541.4967041016"/>
			<point x="630.1857910156" y="254.7579345703"/>
			<point x="460.3741455078" y="254.7579345703" type="qcurve" smooth="yes"/>
			<point x="292.7667236328" y="254.7579345703"/>
			<point x="62.3051757812" y="524.6695556641"/>
		</contour>
		<contour>
			<point x="236.8627929688" y="693.2006225586" type="qcurve" smooth="yes"/>
			<point x="236.8627929688" y="563.2652587891"/>
			<point x="351.2874145508" y="358.1657714844"/>
			<point x="460.7271728516" y="358.1657714844" type="qcurve" smooth="yes"/>
			<point x="550.7553100586" y="358.1657714844"/>
			<point x="653.4232177734" y="552.1938476562"/>
			<point x="653.4232177734" y="683.1292114258" type="qcurve" smooth="yes"/>
			<point x="653.4232177734" y="809.0645751953"/>
			<point x="535.3479614258" y="908.6632080078"/>
			<point x="435.908203125" y="908.6632080078" type="qcurve" smooth="yes"/>
			<point x="341.5565185547" y="908.6632080078"/>
			<point x="236.8627929688" y="813.1359863281"/>
		</contour>
		<contour>
			<point x="459.1682128906" y="930.8115234375" type="line"/>
			<point x="461.1682128906" y="1000.8488769531" type="line"/>
			<point x="930.0239257812" y="987.8488769531" type="line"/>
			<point x="930.0239257812" y="877.4781494141" type="line"/>
		</contour>
	</outline>
	<anchor name="bottom" x="524" y="-416"/>
	<anchor name="top" x="484" y="1000"/>
</glyph>
<glyph name="h" format="2">
	<unicode hex="0068"/>
	<advance width="1291"/>
	<outline>
		<contour>
			<point x="64.4448852539" y="0" type="line"/>
			<point x="64.4448852539" y="81" type="line"/>
			<point x="209.4448852539" y="116" type="line"/>
			<point x="211.4448852539" y="538.1552124023" type="line"/>
			<point x="201.4448852539" y="1382.5012207031" type="line"/>
			<point x="116.4448852539" y="1427.5012207031" type="line"/>
			<point x="116.4448852539" y="1522.0012207031" type="line"/>
			<point x="334.2739868164" y="1533.0012207031" type="line"/>
			<point x="369.2739868164" y="1533.0012207031" type="line"/>
			<point x="375.2739868164" y="1502.0012207031" type="line"/>
			<point x="371.2739868164" y="845.9165039062" type="line"/>
			<point x="426.9145507812" y="921.6337890625"/>
			<point x="618.7185668945" y="1022.9954833984"/>
			<point x="755.9864501953" y="1022.9954833984" type="qcurve" smooth="yes"/>
			<point x="925.3077392578" y="1022.9954833984"/>
			<point x="1085.2307128906" y="909.2419433594"/>
			<point x="1085.2307128906" y="802.9954833984" type="qcurve" smooth="yes"/>
			<point x="1085.2307128906" y="726.037109375"/>
			<point x="1125.4614257812" y="739.3104248047"/>
			<point x="1125.4614257812" y="739.3104248047" type="qcurve"/>
			<point x="1087.2307128906" y="116" type="line"/>
			<point x="1235.2307128906" y="81" type="line"/>
			<point x="1235.2307128906" y="0" type="line"/>
			<point x="784.9201660156" y="0" type="line"/>
			<point x="784.9201660156" y="81" type="line"/>
			<point x="911.9201660156" y="116" type="line"/>
			<point x="911.9201660156" y="593.1552124023" type="line"/>
			<point x="912.9201660156" y="719.3648681641" type="line" smooth="yes"/>
			<point x="912.9201660156" y="782.3963012695"/>
			<point x="801.5866088867" y="876.2664794922"/>
			<point x="697.5344848633" y="876.2664794922" type="qcurve" smooth="yes"/>
			<point x="605.1974487305" y="876.2664794922"/>
			<point x="431.3181762695" y="801.0311279297"/>
			<point x="377.2739868164" y="706.6370239258" type="qcurve"/>
			<point x="377.2739868164" y="572.5819091797" type="line"/>
			<point x="379.2739868164" y="116" type="line"/>
			<point x="499.2739868164" y="81" type="line"/>
			<point x="499.2739868164" y="0" type="line"/>
		</contour>
	</outline>
	<anchor name="bottom" x="629" y="0"/>
	<anchor name="center" x="347" y="1202"/>
	<anchor name="top" x="304" y="1534"/>
</glyph>
<glyph name="k" format="2">
	<unicode hex="006B"/>
	<advance width="1146"/>
	<outline>
		<contour>
			<point x="75.1995849609" y="0" type="line"/>
			<point x="75.1995849609" y="81" type="line"/>
			<point x="228.1995849609" y="116" type="line"/>
			<point x="230.5452880859" y="477" type="line"/>
			<point x="228.1995849609" y="1383.5012207031" type="line"/>
			<point x="52.1995849609" y="1427.5012207031" type="line"/>
			<point x="52.1995849609" y="1512.0012207031" type="line"/>
			<point x="355.3743896484" y="1534.0012207031" type="line"/>
			<point x="380.3743896484" y="1533.0012207031" type="line"/>
			<point x="399.3743896484" y="1502.0012207031" type="line"/>
			<point x="396.0286865234" y="506" type="line"/>
			<point x="398.3743896484" y="116" type="line"/>
			<point x="548.3743896484" y="81" type="line"/>
			<point x="548.3743896484" y="0" type="line"/>
		</contour>
		<contour>
			<point x="281.4873046875" y="392.9652709961" type="line"/>
			<point x="286.0737304688" y="519.7370605469" type="line"/>
			<point x="783.8187255859" y="884.3488769531" type="line"/>
			<point x="720.8187255859" y="914.3488769531" type="line"/>
			<point x="720.8187255859" y="1004.8488769531" type="line"/>
			<point x="1019.61328125" y="1004.8488769531" type="line"/>
			<point x="1019.61328125" y="914.3488769531" type="line"/>
			<point x="941.61328125" y="884.3488769531" type="line"/>
		</contour>
		<contour>
			<point x="472.3200073242" y="576.7061767578" type="line"/>
			<point x="595.7068481445" y="665.4887084961" type="line"/>
			<point x="1047.8838500977" y="118" type="line"/>
			<point x="1140.8838500977" y="81" type="line"/>
			<point x="1140.8838500977" y="0" type="line"/>
			<point x="837.162902832" y="0" type="line"/>
			<point x="828.162902832" y="75.25" type="line"/>
			<point x="849.162902832" y="118.25" type="line"/>
		</contour>
	</outline>
	<anchor name="bottom" x="608" y="0"/>
	<anchor name="top" x="578" y="1534"/>
</glyph>
<glyph name="m" format="2">
	<unicode hex="006D"/>
	<advance width="2006"/>
	<outline>
		<contour>
			<point x="76.6279907227" y="0" type="line"/>
			<point x="76.6279907227" y="81" type="line"/>
			<point x="225.6279907227" y="116" type="line"/>
			<point x="227.9736938477" y="561.1552124023" type="line"/>
			<point x="222.6279907227" y="844.3488769531" type="line"/>
			<point x="76.6279907227" y="879.3488769531" type="line"/>
			<point x="76.6279907227" y="973.8488769531" type="line"/>
			<point x="354.5060424805" y="1007.8488769531" type="line"/>
			<point x="378.6666870117" y="995.1203613281" type="line"/>
			<point x="386.8027954102" y="872.9846191406" type="line"/>
			<point x="442.4859008789" y="931.1574707031"/>
			<point x="658.6419677734" y="1021.8488769531"/>
			<point x="761.102355957" y="1021.8488769531" type="qcurve" smooth="yes"/>
			<point x="884.315612793" y="1021.8488769531"/>
			<point x="1054.1524047852" y="952.6018066406"/>
			<point x="1072.0849609375" y="872.0832519531" type="qcurve"/>
			<point x="1118.0618286133" y="932.1574707031"/>
			<point x="1351.7261962891" y="1021.8488769531"/>
			<point x="1452.3884887695" y="1021.8488769531" type="qcurve" smooth="yes"/>
			<point x="1615.8820800781" y="1021.8488769531"/>
			<point x="1795.6802978516" y="939.8488769531"/>
			<point x="1795.6802978516" y="860.8488769531" type="qcurve" smooth="yes"/>
			<point x="1795.6802978516" y="806.5687866211"/>
			<point x="1796.3893432617" y="615.5819091797"/>
			<point x="1796.8160400391" y="593.1552124023" type="qcurve" smooth="yes"/>
			<point x="1800.6802978516" y="116" type="line"/>
			<point x="1949.6802978516" y="81" type="line"/>
			<point x="1949.6802978516" y="0" type="line"/>
			<point x="1498.8511962891" y="0" type="line"/>
			<point x="1498.8511962891" y="81" type="line"/>
			<point x="1624.8511962891" y="116" type="line"/>
			<point x="1626.8265380859" y="593.1552124023" type="line"/>
			<point x="1630.2344360352" y="706.5395507812" type="line" smooth="yes"/>
			<point x="1631.5975952148" y="799.5395507812"/>
			<point x="1512.3637695312" y="868.5395507812"/>
			<point x="1412.4746704102" y="868.5395507812" type="qcurve" smooth="yes"/>
			<point x="1320.5412597656" y="868.5395507812"/>
			<point x="1131.6654663086" y="801.9974365234"/>
			<point x="1088.7927246094" y="741.4105834961" type="qcurve"/>
			<point x="1086.375" y="742.2594604492"/>
			<point x="1084.7057495117" y="683.5819091797"/>
			<point x="1085.7057495117" y="593.1552124023" type="qcurve" smooth="yes"/>
			<point x="1091.3848266602" y="116" type="line"/>
			<point x="1224.3848266602" y="81" type="line"/>
			<point x="1224.3848266602" y="0" type="line"/>
			<point x="783.5557250977" y="0" type="line"/>
			<point x="783.5557250977" y="81" type="line"/>
			<point x="923.5557250977" y="116" type="line"/>
			<point x="923.9014282227" y="624.1552124023" type="line"/>
			<point x="923.9014282227" y="706.5395507812" type="line" smooth="yes"/>
			<point x="923.9014282227" y="799.5395507812"/>
			<point x="804.9983520508" y="869.5395507812"/>
			<point x="705.4949951172" y="869.5395507812" type="qcurve" smooth="yes"/>
			<point x="614.2854003906" y="869.5395507812"/>
			<point x="437.8458862305" y="796.181640625"/>
			<point x="392.2842407227" y="730.5053100586" type="qcurve"/>
			<point x="390.1113891602" y="595.1552124023" type="line"/>
			<point x="395.4570922852" y="116" type="line"/>
			<point x="538.4570922852" y="81" type="line"/>
			<point x="538.4570922852" y="0" type="line"/>
		</contour>
	</outline>
	<anchor name="bottom" x="958" y="0"/>
	<anchor name="top" x="958" y="1000"/>
</glyph>
<glyph name="n" format="2">
	<unicode hex="006E"/>
	<advance width="1260"/>
	<outline>
		<contour>
			<point x="76.6279907227" y="0" type="line"/>
			<point x="76.6279907227" y="81" type="line"/>
			<point x="224.6279907227" y="116" type="line"/>
			<point x="227.9736938477" y="560.1552124023" type="line"/>
			<point x="222.6279907227" y="840.8918457031" type="line"/>
			<point x="76.6279907227" y="875.8918457031" type="line"/>
			<point x="76.6279907227" y="960.8918457031" type="line"/>
			<point x="358.7529907227" y="1007.8488769531" type="line"/>
			<point x="379.4815063477" y="996.8488769531" type="line"/>
			<point x="386.8027954102" y="842.0247802734" type="line"/>
			<point x="424.4611678585" y="913.3898925781"/>
			<point x="610.1888427734" y="1022.4221801758"/>
			<point x="737.2935791016" y="1022.4221801758" type="qcurve" smooth="yes"/>
			<point x="904.0592041016" y="1022.4221801758"/>
			<point x="1053.7724609375" y="913.4221801758"/>
			<point x="1053.7724609375" y="800.4221801758" type="qcurve" smooth="yes"/>
			<point x="1053.7724609375" y="735.1420898438"/>
			<point x="1050.5326675907" y="643.5819091797"/>
			<point x="1051.5326675907" y="617.1552124023" type="qcurve" smooth="yes"/>
			<point x="1055.3969254032" y="116" type="line"/>
			<point x="1204.3969254032" y="81" type="line"/>
			<point x="1204.3969254032" y="0" type="line"/>
			<point x="753.5678238407" y="0" type="line"/>
			<point x="753.5678238407" y="81" type="line"/>
			<point x="880.5678238407" y="116" type="line"/>
			<point x="880.5678238407" y="593.1552124023" type="line"/>
			<point x="880.8500819052" y="727.4881493353" type="line" smooth="yes"/>
			<point x="881.1323399698" y="814.0821946667"/>
			<point x="778.8225117345" y="855.6438598633"/>
			<point x="683.7866781911" y="855.6438598633" type="qcurve" smooth="yes"/>
			<point x="573.9678856634" y="855.6438598633"/>
			<point x="418.1562066847" y="775.0704345703"/>
			<point x="392.6299438477" y="706.6370239258" type="qcurve"/>
			<point x="393.4570922852" y="595.1552124023" type="line"/>
			<point x="394.8027954102" y="116" type="line"/>
			<point x="513.8027954102" y="81" type="line"/>
			<point x="513.8027954102" y="0" type="line"/>
		</contour>
	</outline>
	<anchor name="bottom" x="632" y="0"/>
	<anchor name="top" x="632" y="1000"/>
	<anchor name="liga" x="1264" y="0"/>
</glyph>
<glyph name="p" format="2">
	<unicode hex="0070"/>
	<advance width="1186"/>
	<outline>
		<contour>
			<point x="60.7406616211" y="-479.9951171875" type="line"/>
			<point x="60.7406616211" y="-398.9951171875" type="line"/>
			<point x="209.2406616211" y="-363.9951171875" type="line"/>
			<point x="211.2406616211" y="431.4244384766" type="line"/>
			<point x="209.2406616211" y="844.3488769531" type="line"/>
			<point x="64.2406616211" y="879.3488769531" type="line"/>
			<point x="64.2406616211" y="964.3488769531" type="line"/>
			<point x="348.2426147461" y="1007.8488769531" type="line"/>
			<point x="364.2426147461" y="996.8488769531" type="line"/>
			<point x="377.2426147461" y="923.8488769531" type="line"/>
			<point x="416.7040405273" y="966.5687866211"/>
			<point x="578.8372192383" y="1028.5819091797"/>
			<point x="702.6875610352" y="1028.5819091797" type="qcurve" smooth="yes"/>
			<point x="850.2384643555" y="1028.5819091797"/>
			<point x="1120.1469116211" y="797.0601806641"/>
			<point x="1120.1469116211" y="527.4244384766" type="qcurve" smooth="yes"/>
			<point x="1120.1469116211" y="275.4136962891"/>
			<point x="831.4299926758" y="0"/>
			<point x="645.8600463867" y="0" type="qcurve" smooth="yes"/>
			<point x="555.5298461914" y="0"/>
			<point x="424.7603149414" y="28"/>
			<point x="385.2426147461" y="55" type="qcurve"/>
			<point x="387.2426147461" y="-363.9951171875" type="line"/>
			<point x="583.2426147461" y="-398.9951171875" type="line"/>
			<point x="583.2426147461" y="-479.9951171875" type="line"/>
		</contour>
		<contour>
			<point x="385.2426147461" y="213.4079589844" type="line"/>
			<point x="421.4830932617" y="152.0004882812"/>
			<point x="549.0475463867" y="89.7410888672"/>
			<point x="626.8538208008" y="89.7410888672" type="qcurve" smooth="yes"/>
			<point x="769.3223266602" y="89.7410888672"/>
			<point x="937.8978881836" y="284.8233032227"/>
			<point x="937.8978881836" y="521.4244384766" type="qcurve" smooth="yes"/>
			<point x="937.8978881836" y="757.6107177734"/>
			<point x="778.8364868164" y="901.9147949219"/>
			<point x="636.7208862305" y="901.9147949219" type="qcurve" smooth="yes"/>
			<point x="542.1677856445" y="901.9147949219"/>
			<point x="417.9286499023" y="831.1979370117"/>
			<point x="383.2426147461" y="802.6632080078" type="qcurve"/>
			<point x="383.2426147461" y="427.4244384766" type="line"/>
		</contour>
	</outline>
	<anchor name="bottom" x="599" y="0"/>
	<anchor name="top" x="599" y="1000"/>
</glyph>
<glyph name="r" format="2">
	<unicode hex="0072"/>
	<advance width="794"/>
	<outline>
		<contour>
			<point x="75.9953613281" y="0" type="line"/>
			<point x="75.9953613281" y="81" type="line"/>
			<point x="224.9953613281" y="116" type="line"/>
			<point x="227.3410644531" y="551.8488769531" type="line"/>
			<point x="224.9953613281" y="839.1633300781" type="line"/>
			<point x="75.9953613281" y="879.3488769531" type="line"/>
			<point x="75.9953613281" y="973.8488769531" type="line"/>
			<point x="369.8488769531" y="1007.8488769531" type="line"/>
			<point x="391.6243286133" y="996.8488769531" type="line"/>
			<point x="387.1701660156" y="861.9971923828" type="line"/>
			<point x="433.0654296875" y="914.8488769531"/>
			<point x="597.522277832" y="1004.2755737305"/>
			<point x="736.2584228516" y="1004.8488769531" type="qcurve" smooth="yes"/>
			<point x="802.2872924805" y="1004.8488769531" type="line"/>
			<point x="802.2872924805" y="727.559753418" type="line"/>
			<point x="694.2865600586" y="727.559753418" type="line"/>
			<point x="638.5088500977" y="867.6633300781" type="line"/>
			<point x="598.8283691406" y="867.5151367188"/>
			<point x="444.2421875" y="792.4966430664"/>
			<point x="395.1701660156" y="731.7003173828" type="qcurve"/>
			<point x="395.1701660156" y="586.8488769531" type="line"/>
			<point x="395.1701660156" y="116" type="line"/>
			<point x="572.1701660156" y="81" type="line"/>
			<point x="572.1701660156" y="0" type="line"/>
		</contour>
	</outline>
	<anchor name="bottom" x="432" y="0"/>
	<anchor name="top" x="486" y="1000"/>
</glyph>
<glyph name="s" format="2">
	<unicode hex="0073"/>
	<advance width="877"/>
	<outline>
		<contour>
			<point x="15.1427889308" y="5.2947998047" type="line"/>
			<point x="15.1427889308" y="292.4104003906" type="line"/>
			<point x="110.4212923488" y="292.4104003906" type="line"/>
			<point x="148.5694857082" y="199" type="line" smooth="yes"/>
			<point x="182.4565328179" y="117.5556640625"/>
			<point x="316.7942403374" y="93.7412109375"/>
			<point x="437.9188741265" y="93.7412109375" type="qcurve" smooth="yes"/>
			<point x="563.6688741265" y="93.7412109375"/>
			<point x="675.1328633843" y="196.4050292969"/>
			<point x="674.4581807671" y="261.8369140625" type="qcurve" smooth="yes"/>
			<point x="673.7834981499" y="336.2603149414"/>
			<point x="512.4613545952" y="418.2261962891"/>
			<point x="353.8400167046" y="464.0401000977" type="qcurve" smooth="yes"/>
			<point x="182.6707051812" y="517.8609619141"/>
			<point x="59.6116231499" y="642.2944946289"/>
			<point x="60.9505281887" y="750.8610229492" type="qcurve" smooth="yes"/>
			<point x="62.3103536187" y="861.5936279297"/>
			<point x="239.570241314" y="1023.8488769531"/>
			<point x="406.2404073296" y="1023.8488769531" type="qcurve" smooth="yes"/>
			<point x="498.7231954155" y="1023.8488769531"/>
			<point x="609.2031148491" y="976.5402832031"/>
			<point x="629.2017720757" y="973.1945800781" type="qcurve"/>
			<point x="677.3499654351" y="1023.5540771484" type="line"/>
			<point x="759.9246114312" y="1023.5540771484" type="line"/>
			<point x="759.9246114312" y="724.4384765625" type="line"/>
			<point x="665.090566021" y="724.4384765625" type="line"/>
			<point x="638.9986470757" y="770.8488769531" type="line" smooth="yes"/>
			<point x="603.3746236382" y="871.404296875"/>
			<point x="501.8499043999" y="914.5521240234"/>
			<point x="418.0551045952" y="914.5521240234" type="qcurve" smooth="yes"/>
			<point x="340.7262471733" y="914.5521240234"/>
			<point x="201.9377950249" y="850.6741943359"/>
			<point x="201.9377950249" y="807.5971679688" type="qcurve" smooth="yes"/>
			<point x="201.9377950249" y="743.5971679688"/>
			<point x="310.2737703762" y="662.5733642578"/>
			<point x="480.3216219387" y="614.6610107422" type="qcurve" smooth="yes"/>
			<point x="601.2714510402" y="587.3115234375"/>
			<point x="836.9412129937" y="423.9589233398"/>
			<point x="836.9412129937" y="281.3516235352" type="qcurve" smooth="yes"/>
			<point x="836.9412129937" y="140.8375854492"/>
			<point x="625.7444356499" y="-16"/>
			<point x="459.4012960015" y="-16" type="qcurve" smooth="yes"/>
			<point x="330.136281353" y="-16"/>
			<point x="182.4727681694" y="34.345703125"/>
			<point x="133.9891634426" y="52.654296875" type="qcurve"/>
			<point x="93.5445833644" y="5.2947998047" type="line"/>
		</contour>
	</outline>
	<anchor name="bottom" x="468" y="0"/>
	<anchor name="top" x="416" y="1000"/>
</glyph>
<glyph name="t" format="2">
	<unicode hex="0074"/>
	<advance width="572"/>
	<outline>
		<contour>
			<point x="38.3051757812" y="876.0167236328" type="line"/>
			<point x="38.3051757812" y="952.6466064453" type="line"/>
			<point x="156.3051757812" y="968.6466064453"/>
			<point x="283.5883178711" y="1140.5294189453"/>
			<point x="316.7238769531" y="1212" type="qcurve"/>
			<point x="334.7238769531" y="1212" type="line"/>
			<point x="344.7238769531" y="1155" type="line"/>
			<point x="339.7238769531" y="979.794921875" type="line"/>
			<point x="529.2573242188" y="979.794921875" type="line"/>
			<point x="529.2573242188" y="878.2760009766" type="line"/>
			<point x="350.2678222656" y="878.2760009766" type="line"/>
			<point x="350.2678222656" y="546.9429931641" type="line"/>
			<point x="357.2678222656" y="240.4818115234" type="line" smooth="yes"/>
			<point x="358.2678222656" y="178.4818115234"/>
			<point x="413.2678222656" y="125.4818115234"/>
			<point x="496.2573242188" y="115.4818115234" type="qcurve" smooth="yes"/>
			<point x="527.2573242188" y="109.4818115234" type="line"/>
			<point x="527.2573242188" y="29" type="line"/>
			<point x="302.7473144531" y="-8" type="line"/>
			<point x="243.7473144531" y="-10"/>
			<point x="180.7473144531" y="69"/>
			<point x="180.7473144531" y="145" type="qcurve" smooth="yes"/>
			<point x="180.7473144531" y="546.9429931641" type="line"/>
			<point x="180.7473144531" y="870.0167236328" type="line"/>
		</contour>
	</outline>
	<anchor name="bottom" x="322" y="0"/>
	<anchor name="center" x="312" y="622"/>
	<anchor name="top" x="322" y="1179"/>
	<anchor name="topright" x="540" y="1000"/>
</glyph>
<glyph name="v" format="2">
	<unicode hex="0076"/>
	<advance width="1045"/>
	<outline>
		<contour>
			<point x="3.5642700195" y="914.3488769531" type="line"/>
			<point x="3.5642700195" y="1004.8488769531" type="line"/>
			<point x="404.6307983398" y="1004.8488769531" type="line"/>
			<point x="404.6307983398" y="914.3488769531" type="line"/>
			<point x="279.1307983398" y="877.3488769531" type="line"/>
			<point x="406.9775390625" y="555.3008422852" type="line"/>
			<point x="489.1796875" y="302.2533569336" type="line"/>
			<point x="526.698425293" y="153.3871459961" type="line"/>
			<point x="526.698425293" y="153.3871459961" type="line"/>
			<point x="562.1846923828" y="302.2533569336" type="line"/>
			<point x="654.037109375" y="573.7950439453" type="line"/>
			<point x="781.4543457031" y="883.3488769531" type="line"/>
			<point x="622.9543457031" y="914.3488769531" type="line"/>
			<point x="622.9543457031" y="1004.8488769531" type="line"/>
			<point x="1083.1539916992" y="1004.8488769531" type="line"/>
			<point x="1083.1539916992" y="914.3488769531" type="line"/>
			<point x="904.1539916992" y="882.3488769531" type="line"/>
			<point x="755.8938598633" y="523.4301757812" type="line"/>
			<point x="568.1619262695" y="-6" type="line"/>
			<point x="472.0681762695" y="-6" type="line"/>
			<point x="278.3927001953" y="479.9376831055" type="line"/>
			<point x="108.5642700195" y="879.3488769531" type="line"/>
		</contour>
	</outline>
	<anchor name="bottom" x="513" y="0"/>
	<anchor name="top" x="513" y="1000"/>
</glyph>
<glyph name="w" format="2">
	<unicode hex="0077"/>
	<advance width="1622"/>
	<outline>
		<contour>
			<point x="449.7506103516" y="-6" type="line"/>
			<point x="267.4826049805" y="492.0469360352" type="line"/>
			<point x="106.2678833008" y="879.3488769531" type="line"/>
			<point x="-12.7321166992" y="914.3488769531" type="line"/>
			<point x="-12.7321166992" y="1004.8488769531" type="line"/>
			<point x="403.4550170898" y="1004.8488769531" type="line"/>
			<point x="403.4550170898" y="914.3488769531" type="line"/>
			<point x="309.9550170898" y="877.3488769531" type="line"/>
			<point x="422.2684936523" y="528.4932250977" type="line"/>
			<point x="518.759765625" y="228.0531616211" type="line"/>
			<point x="540.8400878906" y="163.0095825195" type="line"/>
			<point x="540.8400878906" y="163.0095825195" type="line"/>
			<point x="566.149230957" y="228.2338256836" type="line"/>
			<point x="627.6703491211" y="359.739074707" type="line"/>
			<point x="725.0301513672" y="655.4417114258" type="line"/>
			<point x="676.03515625" y="879.3488769531" type="line"/>
			<point x="582.03515625" y="914.3488769531" type="line"/>
			<point x="582.03515625" y="1004.8488769531" type="line"/>
			<point x="967.7963867188" y="1004.8488769531" type="line"/>
			<point x="967.7963867188" y="914.3488769531" type="line"/>
			<point x="850.2963867188" y="877.3488769531" type="line"/>
			<point x="997.2595825195" y="444.1988525391" type="line"/>
			<point x="1073.1342773438" y="223.0374145508" type="line"/>
			<point x="1095.3224487305" y="170.9736938477" type="line"/>
			<point x="1095.3224487305" y="170.9736938477" type="line"/>
			<point x="1113.831237793" y="223.3831176758" type="line"/>
			<point x="1221.1843261719" y="537.7939453125" type="line"/>
			<point x="1342.42578125" y="881.3488769531" type="line"/>
			<point x="1186.92578125" y="914.3488769531" type="line"/>
			<point x="1186.92578125" y="1004.8488769531" type="line"/>
			<point x="1629.2048339844" y="1004.8488769531" type="line"/>
			<point x="1629.2048339844" y="914.3488769531" type="line"/>
			<point x="1475.2048339844" y="879.3488769531" type="line"/>
			<point x="1308" y="496" type="line"/>
			<point x="1141.0017700195" y="-6" type="line"/>
			<point x="1022.1003417969" y="-6" type="line"/>
			<point x="830" y="480" type="line"/>
			<point x="796.9119262695" y="549.0212402344" type="line"/>
			<point x="796.9119262695" y="549.0212402344" type="line"/>
			<point x="777.3715820312" y="515.370300293" type="line"/>
			<point x="574.676940918" y="-6" type="line"/>
		</contour>
	</outline>
	<anchor name="bottom" x="787" y="0"/>
	<anchor name="top" x="787" y="1000"/>
</glyph>
<glyph name="x" format="2">
	<unicode hex="0078"/>
	<advance width="1124"/>
	<outline>
		<contour>
			<point x="16.1126098633" y="0" type="line"/>
			<point x="16.1126098633" y="84" type="line"/>
			<point x="169.1126098633" y="117" type="line"/>
			<point x="444" y="480" type="line"/>
			<point x="133.1854858398" y="879.3488769531" type="line"/>
			<point x="27.1854858398" y="914.3488769531" type="line"/>
			<point x="27.1854858398" y="1004.8488769531" type="line"/>
			<point x="406.0702514648" y="1004.8488769531" type="line"/>
			<point x="406.0702514648" y="914.3488769531" type="line"/>
			<point x="315.5702514648" y="880.3488769531" type="line"/>
			<point x="454" y="701" type="line"/>
			<point x="527" y="602" type="line"/>
			<point x="537" y="602" type="line"/>
			<point x="603" y="701" type="line"/>
			<point x="784.3469238281" y="883.3488769531" type="line"/>
			<point x="631.8469238281" y="914.3488769531" type="line"/>
			<point x="631.8469238281" y="1004.8488769531" type="line"/>
			<point x="1059.8289794922" y="1004.8488769531" type="line"/>
			<point x="1059.8289794922" y="914.3488769531" type="line"/>
			<point x="923.8289794922" y="881.3488769531" type="line"/>
			<point x="594" y="524" type="line"/>
			<point x="985.1453857422" y="119" type="line"/>
			<point x="1101.6453857422" y="84" type="line"/>
			<point x="1101.6453857422" y="0" type="line"/>
			<point x="700.2606201172" y="0" type="line"/>
			<point x="700.2606201172" y="84" type="line"/>
			<point x="807.7606201172" y="116" type="line"/>
			<point x="584" y="305" type="line"/>
			<point x="511" y="402" type="line"/>
			<point x="501" y="402" type="line"/>
			<point x="439" y="305" type="line"/>
			<point x="312.5946655273" y="115" type="line"/>
			<point x="480.0946655273" y="84" type="line"/>
			<point x="480.0946655273" y="0" type="line"/>
		</contour>
	</outline>
	<anchor name="bottom" x="522" y="0"/>
	<anchor name="top" x="522" y="1000"/>
	<anchor name="cy_descender" x="1043" y="80"/>
</glyph>
<glyph name="y" format="2">
	<unicode hex="0079"/>
	<advance width="981"/>
	<outline>
		<contour>
			<point x="-19.7201538086" y="914.3488769531" type="line"/>
			<point x="-18.7201538086" y="1004.8488769531" type="line"/>
			<point x="390.176940918" y="1004.8488769531" type="line"/>
			<point x="390.176940918" y="914.3488769531" type="line"/>
			<point x="270.676940918" y="877.3488769531" type="line"/>
			<point x="397.4924926758" y="542.2495727539" type="line"/>
			<point x="518.93359375" y="142.8455810547" type="line"/>
			<point x="544.2666015625" y="56.8297119141" type="line"/>
			<point x="544.2666015625" y="56.8297119141" type="line"/>
			<point x="577.7454833984" y="140.6998901367" type="line"/>
			<point x="704.0778198242" y="511.8831176758" type="line"/>
			<point x="862.278137207" y="883.3488769531" type="line"/>
			<point x="702.778137207" y="914.3488769531" type="line"/>
			<point x="702.778137207" y="1004.8488769531" type="line"/>
			<point x="1169.9869384766" y="1004.8488769531" type="line"/>
			<point x="1169.9869384766" y="914.3488769531" type="line"/>
			<point x="993.9869384766" y="882.3488769531" type="line"/>
			<point x="811.9716796875" y="457.9678955078" type="line"/>
			<point x="516.1271972656" y="-151.0913085938" type="line" smooth="yes"/>
			<point x="448.9446411133" y="-370.1633300781"/>
			<point x="320.5339355469" y="-490.423828125"/>
			<point x="231.0037231445" y="-490.423828125" type="qcurve"/>
			<point x="40.1137084961" y="-403.6088867188" type="line"/>
			<point x="40.1137084961" y="-317.6085205078" type="line"/>
			<point x="169.6007080078" y="-317.6085205078" type="line" smooth="yes"/>
			<point x="226.1243896484" y="-317.6085205078"/>
			<point x="361.7946777344" y="-276.1724853516"/>
			<point x="397.7638549805" y="-207.1279296875" type="qcurve" smooth="yes"/>
			<point x="451.8879394531" y="19.7303466797" type="line"/>
			<point x="469.8139648438" y="19.7303466797" type="line"/>
			<point x="248.0567016602" y="476.3883666992" type="line"/>
			<point x="86.2798461914" y="879.3488769531" type="line"/>
		</contour>
	</outline>
	<anchor name="bottom" x="782" y="0"/>
	<anchor name="top" x="524" y="1000"/>
</glyph>
<glyph name="z" format="2">
	<unicode hex="007A"/>
	<advance width="883"/>
	<outline>
		<contour>
			<point x="48.9804077148" y="0" type="line"/>
			<point x="48.9804077148" y="84.185546875" type="line"/>
			<point x="615.7106323242" y="888.0335693359" type="line"/>
			<point x="219.7261962891" y="888.0335693359" type="line"/>
			<point x="152.0225830078" y="760.7332763672" type="line"/>
			<point x="60.0218505859" y="760.7332763672" type="line"/>
			<point x="60.0218505859" y="1004.8488769531" type="line"/>
			<point x="849.0098266602" y="1004.8488769531" type="line"/>
			<point x="849.0098266602" y="922.1818847656" type="line"/>
			<point x="272.5275878906" y="116.8153076172" type="line"/>
			<point x="683.1352539062" y="116.8153076172" type="line"/>
			<point x="762.8388671875" y="239.1156005859" type="line"/>
			<point x="853.8395996094" y="239.1156005859" type="line"/>
			<point x="853.8395996094" y="0" type="line"/>
		</contour>
	</outline>
	<anchor name="bottom" x="443" y="0"/>
	<anchor name="top" x="443" y="1000"/>
	<anchor name="_liga" x="0" y="0"/>
</glyph>
